<svg xmlns="http://www.w3.org/2000/svg" role="img" viewBox="27.98 3.48 605.54 781.04"><title>KubeDay-Japan-2022-web_white-logo.svg</title><defs><style>.b{fill:none}.c{fill:#fff}</style></defs><path d="M284.3674 242.93027c1.47674-.40331 2.80141-1.23484 3.80633-2.38989 2.81088-3.23006 2.47052-8.12697-.75926-10.9375l.03732-.18759-34.5411-30.89374v.00202c-10.53719 17.15092-15.06045 37.32378-12.85397 57.3319l44.27502-12.77514.03565-.15006zm20.16917-34.86593a7.75313 7.75313 0 0 0 4.23136 1.47486c4.2776.18069 7.89231-3.14073 8.07279-7.41854l.19218-.0917 2.61536-46.13432a93.08482 93.08482 0 0 0-9.38465 1.61301c-16.47592 3.7023-31.58929 11.93629-43.6333 23.7726l37.83328 26.82573.07297-.04164zm-12.52085 61.55003a7.61284 7.61284 0 0 0-1.52131.13543l-.07687-.10215-45.39692 7.71099c1.04224 2.88267 2.24158 5.69133 3.55845 8.43536 7.29571 15.20278 18.68407 28.14921 32.98748 37.30505l.40776-.98549 17.18337-41.52263-.13091-.17088c.39829-.92944.61053-1.92782.62557-2.93887.0635-4.28122-3.35512-7.80332-7.63662-7.86682zm52.32387-67.63541c.06963 1.52096.5849 2.98789 1.48231 4.218 2.52512 3.46208 7.37871 4.22162 10.84078 1.6965l.13146.06253 37.58985-26.64859h-.00223c-14.30564-14.01632-32.81981-22.94496-52.69486-25.41277l2.61146 46.06351.04122.02082zM317.914 256.495l12.742 6.127 12.704-6.114 3.153-13.713-8.795-10.996h-14.146l-8.817 10.977 3.159 13.719zm19.73372 35.82702h-.16656c-.72082-1.33316-1.81543-2.42617-3.15013-3.14435-3.77514-2.03192-8.48278-.61854-10.51491 3.15681h-.03732l-21.76289 39.35264-.56374 1.01933c15.98627 5.44114 33.17187 6.32372 49.63163 2.54879v.00418c3.05933-.69604 6.04123-1.52897 8.94681-2.49879l-.59437-1.07337-21.78852-39.36524z" class="b"/><path d="M502.12558 127.11108c-1.94244-8.11659-7.42271-14.93421-14.93177-18.576l-144.37999-68.9357c-7.57869-3.61666-16.38567-3.61666-23.96492 0l-144.35715 68.96641c-7.51017 3.63859-12.99212 10.45426-14.93567 18.5698l-35.61231 154.9364a27.25042 27.25042 0 0 0-.00836 11.89333 27.56598 27.56598 0 0 0 1.00548 3.51945c.69687 1.96075 1.61935 3.83377 2.74961 5.58117.48686.75341 1.00938 1.48099 1.56587 2.18253l99.92337 124.23373c.43394.53846.91524 1.03187 1.39207 1.53551a27.48667 27.48667 0 0 0 5.27417 4.36506 28.5049 28.5049 0 0 0 7.89231 3.43757 27.22817 27.22817 0 0 0 7.02052.96635h1.5564l158.68118-.03684a26.59317 26.59317 0 0 0 2.88664-.16788 27.5787 27.5787 0 0 0 4.07205-.77597 28.37253 28.37253 0 0 0 2.83149-.91106 27.2688 27.2688 0 0 0 2.13964-.88042 28.61113 28.61113 0 0 0 3.01811-1.68292c2.5162-1.58043 4.75666-3.56186 6.63337-5.86582l3.04262-3.79178 96.83953-120.46444c1.85777-2.32778 3.31724-4.94697 4.31994-7.75144.41667-1.15226.75703-2.3307 1.0194-3.52767v.00418c.87569-3.91489.87457-7.97496-.0039-11.88922L502.12559 127.1111zm-40.69819 127.51818c7.41547 9.42831 14.00818 19.51429 20.76577 29.44568 6.37267 9.36487 4.92935 13.86432-5.57999 17.64705-11.28865 4.0632-22.4904 8.50395-34.03196 11.68123-8.96575 2.46795-11.88693 7.41826-11.68082 16.32711.29412 12.68588-.55594 25.39647-.83781 38.09822-.13425 6.06399-2.68666 9.74506-9.94616 10.08298-11.75323-3.52795-24.57155-6.39078-36.57267-11.26546-11.15886-4.53259-17.80838-1.53412-23.89974 8.04891-5.6914 8.95377-12.58714 17.15023-19.06732 25.59221-7.30072 9.51089-11.9599 9.58609-19.1247.26321-7.74079-10.07184-15.51222-20.12941-22.90986-30.45137-3.97122-5.54148-8.32904-7.23387-14.96575-5.00177-12.33925 4.14976-24.85342 7.79608-37.35867 11.43126-10.30434 2.99541-14.14855.17338-14.49393-10.42397-.42503-13.04155-.95312-26.08798-.94699-39.13204.00334-6.8658-2.7173-10.75249-9.24984-12.84248-12.07744-3.86413-24.04012-8.09675-35.98999-12.34614-11.16944-3.97185-12.537-8.3963-5.70811-18.32686 6.61276-9.61583 13.00716-19.42014 20.21986-28.57257 5.56105-7.05687 5.92926-12.87792.23508-20.11277-7.63105-9.69521-14.48724-20.018-21.38521-30.26684-5.54935-8.24395-3.95729-13.16278 5.24965-16.51951 11.5928-4.22642 23.16889-8.60408 35.01682-11.98852 8.25216-2.3573 11.84905-6.53171 11.63068-15.29636-.29914-11.99847.50803-24.02425.83001-36.03867.34092-12.69263 3.58574-14.98908 16.12553-11.23121 10.83521 3.24691 21.79632 6.16468 32.40927 10.03013 8.71062 3.17269 14.71953 1.84983 20.0494-6.26829 6.58101-10.02338 14.22376-19.36047 21.5813-28.85966 6.50469-8.39825 11.45242-8.47937 17.84794-.24113 7.99982 10.30462 15.9495 20.65882 23.5566 31.2531 3.97902 5.5419 8.32402 7.23102 14.96296 4.99898 12.33981-4.14878 24.86066-7.77324 37.36313-11.42026 10.30546-3.00599 14.1285-.21335 14.48056 10.39695.41055 12.35478 1.07121 24.72063.87011 37.06949-.13759 8.45876 2.6822 13.22956 11.24409 15.61374 11.86576 3.30436 23.42848 7.73696 35.03075 11.93609 9.86037 3.56868 11.35717 8.33865 5.36329 17.16959-6.7459 9.93926-13.41102 19.9726-20.81201 29.41567-5.5176 7.04002-5.95767 12.87409-.27128 20.10427z" class="b"/><path d="M373.80818 229.28404l.01671.08962c-1.14418.99984-1.96918 2.31337-2.3736 3.77779-1.1414 4.1327 1.28345 8.40821 5.41621 9.54961l.04178.18752 44.49617 12.8163c1.92071-19.98806-2.73067-40.05724-13.24836-57.16248l-34.34892 30.74166zm-3.08886 40.27608a7.479 7.479 0 0 0-1.78145-.13132 7.68318 7.68318 0 0 0-2.9702.7711c-3.73893 1.80624-5.39449 6.23522-3.75731 10.0513l-.05403.07715 17.34158 41.89989.43116 1.04169v.00209c13.07122-8.34171 23.70478-19.85778 31.00215-33.36774 2.1959-4.06529 4.10269-8.30369 5.66633-12.69987l-45.80079-7.74016-.07743.09588z" class="b"/><path d="M556.62919 286.02142v-.00613l-38.91507-169.03273c-2.11791-8.85698-8.09842-16.29641-16.29265-20.26916L343.90509 21.51268c-8.26887-3.9465-17.87802-3.9465-26.14745 0L160.2563 96.75845c-8.19479 3.96913-14.17696 11.40459-16.29933 20.25892l-38.84711 169.0429c-1.77031 7.87211-.29802 16.12539 4.0843 22.90012.53421.81894 1.10129 1.61336 1.71572 2.3791l109.01557 135.54759c5.78442 7.06174 14.41427 11.17961 23.54267 11.23399l174.82064-.04094c9.12673-.05195 17.75602-4.1641 23.5449-11.21972l108.97713-135.55984c5.65185-7.11787 7.78981-16.40649 5.8184-25.27914zm-18.83002 7.9132v-.00418c-.26237 1.19696-.60273 2.37541-1.0194 3.52767-1.00269 2.80448-2.46217 5.42366-4.31994 7.75144L435.6203 425.67399l-3.04262 3.79178c-1.87671 2.30397-4.11717 4.2854-6.63337 5.86582a28.60834 28.60834 0 0 1-3.01811 1.68292 27.26721 27.26721 0 0 1-2.13964.88042 28.37253 28.37253 0 0 1-2.83149.91106 27.57845 27.57845 0 0 1-4.07205.77597 26.59347 26.59347 0 0 1-2.88664.16788l-158.68118.03684h-1.5564a27.22724 27.22724 0 0 1-7.02052-.96635 28.50474 28.50474 0 0 1-7.89231-3.43757 27.4866 27.4866 0 0 1-5.27417-4.36506c-.47684-.50364-.95813-.99705-1.39207-1.53551l-99.92337-124.23373c-.55649-.70154-1.07901-1.42912-1.56587-2.18253-1.13026-1.7474-2.05274-3.62042-2.74961-5.58117a27.56645 27.56645 0 0 1-1.00548-3.51945 27.25042 27.25042 0 0 1 .00836-11.89333l35.61231-154.9364c1.94355-8.11555 7.4255-14.93121 14.93567-18.5698l144.35716-68.9664c7.57924-3.61666 16.38623-3.61666 23.96492 0l144.37999 68.9357c7.50906 3.64179 12.98933 10.45941 14.93177 18.576l35.66969 154.93431c.87847 3.91426.87958 7.97433.0039 11.88922z" class="c"/><path d="M482.51068 205.10932c5.99388-8.83094 4.49708-13.6009-5.36329-17.16959-11.60227-4.19913-23.16499-8.63172-35.03075-11.93609-8.56188-2.38418-11.38168-7.15498-11.24409-15.61374.2011-12.34886-.45957-24.71471-.87011-37.06949-.35206-10.6103-4.1751-13.40294-14.48056-10.39695-12.50247 3.64702-25.02332 7.27147-37.36313 11.42026-6.63894 2.23204-10.98394.54292-14.96296-4.99898-7.6071-10.59429-15.55678-20.94848-23.5566-31.2531-6.39551-8.23824-11.34324-8.15712-17.84794.24113-7.35754 9.49919-15.00029 18.83628-21.5813 28.85966-5.32987 8.11812-11.33879 9.44098-20.0494 6.26829-10.61295-3.86545-21.57405-6.78322-32.40927-10.03013-12.53979-3.75787-15.78462-1.46143-16.12553 11.23121-.32198 12.01442-1.12914 24.04019-.83001 36.03867.21836 8.76465-3.37852 12.93906-11.63068 15.29636-11.84793 3.38444-23.42402 7.7621-35.01682 11.98852-9.20695 3.35672-10.799 8.27556-5.24965 16.51951 6.89797 10.24885 13.75416 20.57164 21.38521 30.26684 5.69418 7.23485 5.32597 13.0559-.23508 20.11277-7.2127 9.15243-13.6071 18.95675-20.21986 28.57257-6.8289 9.93056-5.46133 14.35501 5.70811 18.32686 11.94987 4.2494 23.91256 8.48202 35.98999 12.34614 6.53254 2.08999 9.25319 5.97668 9.24984 12.84248-.00613 13.04406.52196 26.09049.94699 39.13204.34537 10.59735 4.18959 13.41937 14.49393 10.42397 12.50525-3.63518 25.01942-7.2815 37.35867-11.43126 6.63671-2.23211 10.99453-.53971 14.96575 5.00177 7.39765 10.32196 15.16907 20.37953 22.90986 30.45137 7.1648 9.32289 11.82398 9.24768 19.1247-.26321 6.48018-8.44198 13.37592-16.63844 19.06732-25.59221 6.09136-9.58303 12.74089-12.5815 23.89974-8.04891 12.00112 4.87469 24.81944 7.73752 36.57267 11.26546 7.2595-.33792 9.81191-4.01899 9.94616-10.08298.28187-12.70175 1.13193-25.41235.83781-38.09822-.20611-8.90886 2.71507-13.85917 11.68082-16.32711 11.54155-3.17728 22.7433-7.61803 34.03196-11.68123 10.50934-3.78273 11.95266-8.28217 5.57999-17.64705-6.75759-9.9314-13.3503-20.01737-20.76577-29.44568-5.68638-7.23018-5.24631-13.06425.27128-20.10427 7.40099-9.44307 14.06611-19.47641 20.81201-29.41567zm-88.12891-23.80191h.00223L356.79415 207.956l-.13146-.06253c-3.46208 2.52512-8.31567 1.76558-10.84078-1.6965-.89741-1.23011-1.41268-2.69704-1.48231-4.218l-.04122-.02082-2.61146-46.06351c19.87505 2.46781 38.38921 11.39644 52.69486 25.41277zm-70.80962 50.49207h14.14633l8.79473 10.99536-3.15291 13.71294-12.70412 6.11462-12.742-6.12708-3.1596-13.71928 8.81757-10.97656zm-13.30852-74.29182a93.08482 93.08482 0 0 1 9.38465-1.61301l-2.61536 46.13432-.19218.0917c-.18048 4.27781-3.79519 7.59923-8.07279 7.41854-1.52465-.06441-2.99694-.57745-4.23136-1.47486l-.07297.04164-37.83328-26.82573c12.04401-11.8363 27.15738-20.07029 43.6333-23.7726zm-57.35292 41.01592v-.00202l34.5411 30.89374-.03732.18759c3.22979 2.81053 3.57014 7.70744.75926 10.9375a7.75275 7.75275 0 0 1-3.80633 2.38989l-.03565.15006-44.27502 12.77514c-2.20648-20.00811 2.31678-40.18097 12.85397-57.3319zm46.24699 82.06736l-17.18337 41.52263-.40776.98549c-14.30342-9.15584-25.69178-22.10228-32.98748-37.30505-1.31687-2.74404-2.5162-5.55269-3.55845-8.43536l45.39692-7.71099.07687.10215a7.61284 7.61284 0 0 1 1.52131-.13543c4.2815.0635 7.70013 3.5856 7.63662 7.86682-.01504 1.01105-.22728 2.00942-.62557 2.93887l.13091.17088zm51.92613 54.66849v-.00418c-16.45976 3.77493-33.64536 2.89235-49.63163-2.54879l.56374-1.01933 21.76289-39.35264h.03732c2.03212-3.77535 6.73977-5.18873 10.51491-3.15681 1.3347.71818 2.4293 1.81118 3.15013 3.14435h.16656l21.78852 39.36524.59437 1.07337c-2.90558.96983-5.88748 1.80276-8.94681 2.49879zm59.8474-45.35515c-7.29738 13.50996-17.93094 25.02603-31.00215 33.36774v-.00209l-.43116-1.04169-17.34158-41.89989.05403-.07715c-1.63717-3.81608.01838-8.24506 3.75731-10.0513a7.68318 7.68318 0 0 1 2.9702-.7711 7.47948 7.47948 0 0 1 1.78145.13132l.07743-.09588 45.80079 7.74016c-1.56364 4.39618-3.47043 8.63458-5.66633 12.69987zm10.47424-34.19942l-44.49617-12.8163-.04178-.18752c-4.13277-1.1414-6.55761-5.41691-5.41621-9.54961.40442-1.46442 1.22941-2.77795 2.3736-3.77779l-.01671-.08962 34.34892-30.74166c10.51769 17.10525 15.16907 37.17442 13.24836 57.16248z" class="c"/><g><path d="M374.14458 705.96539c-.66178-1.6823-1.24334-3.16294-1.74246-4.44527-.50135-1.2801-.90465-2.28503-1.21214-3.01365-.25624.74534-.63504 1.76028-1.1297 3.0415-.49689 1.28345-1.06285 2.7652-1.69567 4.4475-.63504 1.68118-1.34361 3.53171-2.12794 5.55381-.7821 2.02098-1.57757 4.14112-2.38641 6.3593h14.67497c-.78656-2.22598-1.54638-4.35169-2.28168-6.37936-.73754-2.02767-1.43719-3.88154-2.09897-5.56383z" class="c"/><path d="M43.16844 656.73177v113.00754h575.38812V656.73177H43.16844zm185.06426 64.21274c0 2.51787-.28521 4.88757-.85117 7.10909-.56819 2.22152-1.55529 4.15895-2.96351 5.81339-1.406 1.65444-3.30666 2.96129-5.70198 3.92387-2.39532.9637-5.419 1.44499-9.07103 1.44499-3.35791 0-6.24566-.40776-8.66327-1.22217-2.41983-.81441-4.42076-1.76474-5.99833-2.85099l3.85034-8.96073c1.43051.84003 2.96129 1.58091 4.59011 2.22152 1.62882.64284 3.40693.96259 5.3321.96259 2.81422 0 4.83744-.69074 6.07186-2.07335 1.23443-1.38149 1.85164-3.70217 1.85164-6.96092v-33.47212h11.55325v34.06482zm49.68232 17.25412c-.57042-1.78257-1.18318-3.61415-1.8405-5.49364s-1.31241-3.75119-1.96528-5.61397h-20.04272c-.64618 1.87169-1.29682 3.74784-1.94745 5.62845-.65064 1.88172-1.25894 3.70885-1.81822 5.47916h-11.99666c1.92963-5.52818 3.76121-10.63857 5.49476-15.32895 1.73354-4.68926 3.42921-9.10891 5.087-13.2556 1.66001-4.14669 3.29329-8.08282 4.90428-11.81172 1.60877-3.72668 3.27992-7.36757 5.01346-10.92267h10.95164c1.68452 3.5551 3.34677 7.19599 4.9845 10.92267 1.6355 3.7289 3.2866 7.66503 4.94662 11.81172 1.66224 4.14669 3.36014 8.56634 5.09591 13.2556 1.73577 4.69037 3.57182 9.80077 5.5059 15.32895h-12.37323zm57.46991-21.29051c-4.14669 2.74069-10.07149 4.10993-17.77218 4.10993h-3.62752v17.18059h-11.55325v-50.57806c2.51787-.49243 5.18281-.83892 7.99703-1.03723 2.81422-.19608 5.28308-.29524 7.40656-.29524 7.65166 0 13.52521 1.34472 17.62289 4.03528 4.09767 2.69167 6.14762 7.09795 6.14762 13.21884 0 6.17102-2.07446 10.62632-6.22115 13.3659zm49.68455 21.29051c-.57042-1.78257-1.18318-3.61415-1.8405-5.49364s-1.31241-3.75119-1.96528-5.61397h-20.04272c-.64618 1.87169-1.29682 3.74784-1.94745 5.62845-.65064 1.88172-1.25894 3.70885-1.81822 5.47916h-11.99666c1.92963-5.52818 3.76121-10.63857 5.49476-15.32895 1.73354-4.68926 3.42921-9.10891 5.087-13.2556 1.66001-4.14669 3.29329-8.08282 4.90428-11.81172 1.60877-3.72668 3.27992-7.36757 5.01346-10.92267h10.95164c1.68452 3.5551 3.34677 7.19599 4.9845 10.92267 1.6355 3.7289 3.2866 7.66503 4.94662 11.81172 1.66224 4.14669 3.36014 8.56634 5.09591 13.2556 1.73577 4.69037 3.57182 9.80077 5.5059 15.32895h-12.37323zm68.65327 0h-9.70161c-3.30889-5.87467-6.88739-11.67469-10.73773-17.40229-3.85034-5.72649-7.95024-11.13212-12.29302-16.218v33.6203h-11.40396V686.8797h9.40526c1.62882 1.62993 3.42921 3.62863 5.40563 5.99833 1.97419 2.3697 3.98626 4.90094 6.03398 7.59039 2.04995 2.69167 4.08653 5.48027 6.10974 8.36803 2.02321 2.88887 3.9261 5.66522 5.70198 8.33126V686.8797h11.47972v51.31894z" class="c"/><path d="M326.68378 697.65418c-.96259-.56596-2.13462-.96259-3.51611-1.18429-1.38372-.22171-2.91449-.33312-4.59233-.33312-.84003 0-1.6667.02562-2.47999.07353-.81552.05013-1.51964.10027-2.11011.14818v14.81089h3.62752c3.99963 0 7.00994-.54257 9.03538-1.62882 2.02321-1.08514 3.03482-3.11058 3.03482-6.07298 0-1.43051-.25847-2.61591-.77764-3.55399-.51694-.93696-1.25894-1.69121-2.22152-2.2594zm-59.69366 8.31121c-.66178-1.6823-1.24334-3.16294-1.74246-4.44527-.50135-1.2801-.90465-2.28503-1.21214-3.01365-.25624.74534-.63504 1.76028-1.1297 3.0415-.49689 1.28345-1.06285 2.7652-1.69567 4.4475-.63504 1.68118-1.34361 3.53171-2.12794 5.55381-.7821 2.02098-1.57757 4.14112-2.38641 6.3593h14.67497c-.78656-2.22598-1.54638-4.35169-2.28168-6.37936-.73754-2.02767-1.43719-3.88154-2.09897-5.56383z" class="c"/></g><g><path d="M101.46473 609.38043c-1.92517-3.09275-4.19571-6.43617-6.8094-10.02804-2.61591-3.59187-5.43237-7.21382-8.45159-10.86362-3.01922-3.64757-6.17882-7.14697-9.47879-10.49485s-6.59995-6.30471-9.89769-8.87272v40.25924H45.43091v-95.05307h21.39635v35.72372c5.50144-5.77774 11.09201-11.82064 16.76725-18.13092 5.67524-6.30694 10.91598-12.17046 15.72445-17.59281h25.39041c-6.46848 7.70514-12.97708 15.1117-19.52132 22.21968-6.54424 7.11132-13.43609 14.26498-20.66662 21.46654 7.60487 6.3437 14.94013 13.86613 22.00354 22.57173s13.85499 18.30472 20.37918 28.79511h-25.43943zm93.334-2.46885c-3.476 1.00715-7.9547 1.94411-13.44166 2.812s-11.24687 1.30239-17.28197 1.30239c-6.12757 0-11.2257-.82221-15.29441-2.46885-4.06982-1.64553-7.29292-3.95395-9.6693-6.92638-2.37861-2.9702-4.06982-6.51528-5.07474-10.62966-1.00715-4.1155-1.50961-8.64099-1.50961-13.57981v-40.18793h20.43711v37.71908c0 6.58435.86789 11.33934 2.607 14.26498 1.73577 2.92786 4.98227 4.38957 9.73838 4.38957 1.4617 0 3.01699-.06907 4.66364-.20611 1.64553-.13703 3.10723-.29524 4.38845-.48018v-55.68734h20.43711v69.67825zm86.27394-33.6047c0 5.76103-.84672 10.9728-2.53793 15.63644-1.69344 4.66364-4.13778 8.64099-7.33748 11.93316-3.20193 3.29218-7.13249 5.82899-11.79613 7.61267-4.66364 1.78257-9.96788 2.67385-15.91162 2.67385-2.46885 0-5.05246-.11475-7.74859-.34203-2.69836-.22951-5.34992-.52808-7.95581-.8924-2.60589-.36543-5.09814-.79881-7.47563-1.30239-2.37861-.50135-4.48092-1.02832-6.30917-1.57757V506.23452l20.43711-3.29106v35.9354c2.28503-1.00492 4.66364-1.78257 7.13249-2.33182 2.46885-.54814 5.12042-.82221 7.9547-.82221 5.12042 0 9.64702.89128 13.57981 2.67496 3.93056 1.78257 7.22273 4.32049 9.87541 7.61155 2.65157 3.29218 4.66364 7.24836 6.0351 11.8652 1.37146 4.61796 2.05775 9.76177 2.05775 15.43033zm-20.84933-.54814c0-13.16759-4.84746-19.75194-14.53905-19.75194-2.10454 0-4.18346.27407-6.24009.82332-2.05775.54814-3.72779 1.23443-5.00678 2.05775v37.16983c1.00492.18494 2.28503.34314 3.84031.48018 1.55417.13703 3.24538.20611 5.07474.20611 5.5772 0 9.78406-1.92071 12.61945-5.76103 2.83316-3.84031 4.25142-8.91505 4.25142-15.22422zm33.19136 1.09628c0-6.39941.98153-12.00112 2.94903-16.80179 1.96528-4.80067 4.54777-8.8003 7.7497-12.00112 3.1997-3.1997 6.87959-5.62399 11.04188-7.27064 4.16006-1.64553 8.43488-2.46885 12.82444-2.46885 10.23972 0 18.33257 3.13397 24.27743 9.39635 5.94263 6.2646 8.91505 15.47712 8.91505 27.63756 0 1.18986-.04679 2.49225-.13703 3.90939-.09136 1.41825-.18383 2.67496-.27407 3.77235h-46.36007c.45567 4.20685 2.42095 7.54359 5.89695 10.01245 3.47489 2.46885 8.13852 3.70328 13.99091 3.70328 3.74896 0 7.42773-.34314 11.04188-1.02832 3.61081-.68629 6.55984-1.53078 8.84709-2.53793l2.74292 16.5968c-1.09739.54814-2.56132 1.09739-4.38957 1.64553-1.83047.54925-3.86371 1.02943-6.10306 1.44054-2.24158.4111-4.64247.75425-7.20156 1.02832-2.56132.27407-5.12153.41222-7.68063.41222-6.49411 0-12.13927-.96036-16.93994-2.88107-4.80067-1.9196-8.77802-4.54777-11.93316-7.88674-3.15403-3.33674-5.48584-7.29069-6.99434-11.86409-1.50961-4.57117-2.26386-9.50887-2.26386-14.81423zm48.00671-7.81766c-.09247-1.73577-.38994-3.42921-.89128-5.07474-.50357-1.64664-1.28233-3.10835-2.33182-4.38957-1.05283-1.27899-2.37861-2.33182-3.97735-3.15514-1.60097-.82221-3.59075-1.23443-5.96714-1.23443-2.28614 0-4.25142.39105-5.89806 1.16647-1.64553.77764-3.01699 1.80708-4.11438 3.08607-1.09739 1.28122-1.94411 2.76632-2.53793 4.45753-.59605 1.69344-1.02832 3.40804-1.30239 5.14381h27.02035zm120.15382-4.25253c0 8.22988-1.28122 15.41028-3.84031 21.5345-2.56132 6.12757-6.19553 11.20231-10.90373 15.22534-4.71154 4.02526-10.44806 7.04225-17.21401 9.0532-6.76818 2.00984-14.35745 3.01699-22.76893 3.01699-3.84031 0-8.32235-.16043-13.44166-.48018-5.12265-.32086-10.1506-.98153-15.0883-1.98867V515.5618c4.93771-.91245 10.08152-1.52966 15.43033-1.85164 5.34992-.31975 9.94449-.48018 13.7848-.48018 8.13852 0 15.52169.91468 22.15172 2.74292 6.62891 1.83047 12.32087 4.71154 17.07698 8.6421 4.75388 3.93167 8.41148 8.96185 10.9728 15.08719 2.5591 6.12757 3.84031 13.48956 3.84031 22.08264zm-61.85947 30.1766c1.00492.09136 2.17139.16043 3.49717.205 1.32467.04791 2.90224.06907 4.73271.06907 10.69873 0 18.63004-2.69613 23.79725-8.09285 5.16498-5.39449 7.7497-12.84561 7.7497-22.35783 0-9.96565-2.46885-17.50925-7.40656-22.63078-4.93771-5.12042-12.75648-7.68174-23.45522-7.68174-1.46393 0-2.97243.0234-4.52549.06907-1.5564.04679-3.01811.16043-4.38957.34314v60.07691zm104.2433-56.64881c6.0351 0 11.06193.68629 15.08719 2.05775 4.02303 1.37146 7.24613 3.33897 9.67042 5.89806 2.42095 2.56132 4.13555 5.67079 5.1427 9.32727 1.00604 3.6576 1.50961 7.72853 1.50961 12.20723v42.51975c-2.92786.64061-6.99545 1.39597-12.20834 2.26386-5.21178.86789-11.52094 1.30239-18.9275 1.30239-4.66364 0-8.89389-.4111-12.68741-1.23443-3.79575-.82221-7.06453-2.17027-9.80745-4.04642-2.74292-1.87281-4.84746-4.32049-6.30917-7.33748-1.46393-3.01811-2.19478-6.72139-2.19478-11.10984 0-4.20574.84449-7.77198 2.53793-10.69873 1.69009-2.92564 3.95395-5.25745 6.78935-6.99545 2.83316-1.73577 6.07966-2.99471 9.73838-3.77235 3.65649-.77542 7.45112-1.16535 11.38391-1.16535 2.65157 0 5.00678.11587 7.06453.34314 2.05663.22839 3.72445.52697 5.00567.89128v-1.92071c0-3.47377-1.05171-6.26237-3.15403-8.36692-2.10454-2.10231-5.76103-3.15403-10.9728-3.15403-3.47712 0-6.90521.2529-10.28763.75425-3.38353.50357-6.30917 1.21214-8.77802 2.12571l-2.60589-16.45976c1.18652-.36431 2.67385-.75425 4.45753-1.16535 1.78257-.41222 3.72445-.77653 5.82899-1.09739 2.10231-.31975 4.32049-.59382 6.65231-.82332 2.33182-.22728 4.6848-.34314 7.06453-.34314zm1.64553 59.80284c2.00984 0 3.93056-.04456 5.76103-.13703 1.82824-.09024 3.29106-.22728 4.38845-.4111v-15.49941c-.82221-.18271-2.05663-.36431-3.70328-.54925-1.64553-.1816-3.15403-.27407-4.5266-.27407-1.9196 0-3.72668.11587-5.41788.34314-1.69232.22951-3.17742.66401-4.45753 1.30239-1.28122.64172-2.28614 1.50961-3.01699 2.607-.73308 1.09739-1.09739 2.46885-1.09739 4.11438 0 3.20193 1.074 5.41788 3.2231 6.65231 2.14799 1.23443 5.09591 1.85164 8.84709 1.85164zm110.68951-57.88213c-4.12552 13.90067-8.43265 26.93122-12.92471 39.09166-4.49206 12.16155-9.39746 23.95768-14.71508 35.38726-1.92517 4.11438-3.847 7.61267-5.76994 10.49262-1.92406 2.88107-4.03083 5.25745-6.31919 7.13249-2.28948 1.87281-4.87643 3.24538-7.76084 4.1155-2.88441.86789-6.24901 1.30239-10.09378 1.30239-3.20639 0-6.16211-.29747-8.86269-.89128-2.70059-.59605-4.91988-1.25782-6.66011-1.98867l3.56624-16.32273c2.10454.73085 3.97958 1.23443 5.62511 1.5085 1.64553.27518 3.38687.41222 5.21623.41222 3.65872 0 6.47071-.98375 8.43822-2.94903 1.96751-1.96751 3.63643-4.68703 5.01012-8.16192-4.66698-9.14233-9.33284-19.40768-13.99871-30.7927-4.66586-11.38391-9.05655-24.16156-13.17204-38.33629h21.67154c.91691 3.56624 1.99759 7.42995 3.2387 11.59002 1.23888 4.16229 2.54795 8.36692 3.9261 12.61945 1.37592 4.25142 2.77746 8.39031 4.20017 12.41222 1.42382 4.02526 2.77969 7.68174 4.06536 10.97392 1.19209-3.29218 2.4332-6.94866 3.71888-10.97392 1.28568-4.02191 2.54795-8.16081 3.78684-12.41222 1.23888-4.25253 2.43209-8.45716 3.58184-12.61945 1.14641-4.16006 2.17919-8.02377 3.09832-11.59002h21.13343z" class="c"/></g></svg>